<svg width="42" height="42" viewBox="0 0 42 42" fill="none" xmlns="http://www.w3.org/2000/svg">
<g clip-path="url(#clip0_1_267)">
<path d="M38.0625 0H3.9375C1.76285 0 0 1.76285 0 3.9375V38.0625C0 40.2371 1.76285 42 3.9375 42H38.0625C40.2371 42 42 40.2371 42 38.0625V3.9375C42 1.76285 40.2371 0 38.0625 0ZM39.375 38.0625C39.375 38.7874 38.7874 39.375 38.0625 39.375H3.9375C3.21259 39.375 2.625 38.7874 2.625 38.0625V3.9375C2.625 3.21259 3.21259 2.625 3.9375 2.625H38.0625C38.7874 2.625 39.375 3.21259 39.375 3.9375V38.0625Z" fill="black"/>
<path d="M28.4943 22.6931C27.9824 22.1842 27.1556 22.1842 26.6437 22.6931L23.6249 25.7119L17.9943 20.0813C17.4824 19.5723 16.6556 19.5723 16.1437 20.0813L6.95619 29.2688C6.44874 29.7864 6.45686 30.6173 6.97448 31.1248C7.21524 31.3609 7.53771 31.4952 7.87494 31.5H34.1249C34.8498 31.5042 35.4408 30.92 35.4451 30.1951C35.4471 29.8425 35.3072 29.5039 35.0568 29.2556L28.4943 22.6931Z" fill="black"/>
<path d="M24.9375 18.375C27.1121 18.375 28.875 16.6121 28.875 14.4375C28.875 12.2629 27.1121 10.5 24.9375 10.5C22.7629 10.5 21 12.2629 21 14.4375C21 16.6121 22.7629 18.375 24.9375 18.375Z" fill="black"/>
</g>
<defs>
<clipPath id="clip0_1_267">
<rect width="42" height="42" fill="white"/>
</clipPath>
</defs>
</svg>
