2<svg width="17" height="17" viewBox="0 0 17 17" fill="none" xmlns="http://www.w3.org/2000/svg">
<path d="M13.727 12.5792L13.7275 12.5793C14.5352 12.8477 15.2378 13.3637 15.7355 14.0542C16.2332 14.7446 16.5007 15.5744 16.5 16.4255V16.4259C16.5 16.4456 16.4922 16.4644 16.4783 16.4783C16.4644 16.4922 16.4456 16.5 16.4259 16.5H1.5041C1.48442 16.5 1.46558 16.4922 1.4517 16.4783C1.4378 16.4644 1.42999 16.4456 1.42999 16.4259L1.42999 16.4255C1.42927 15.5744 1.69675 14.7446 2.19445 14.0542C2.69215 13.3637 3.39476 12.8477 4.20247 12.5793L4.20293 12.5792L6.64609 11.7648L6.64727 11.7644C6.65456 11.7619 6.66224 11.7606 6.67003 11.7606H11.2598C11.2677 11.7607 11.2755 11.762 11.2829 11.7645L11.2839 11.7648L13.727 12.5792Z" stroke="#6D6D6D"/>
<path d="M8.96174 1.43C9.74232 1.43022 10.4909 1.74044 11.0428 2.29246C11.5947 2.84452 11.9047 3.59318 11.9047 4.3738V6.66543C11.892 7.43694 11.5768 8.17266 11.0269 8.71415C10.4762 9.25651 9.73428 9.56051 8.96134 9.56051C8.18839 9.56051 7.44646 9.25651 6.89574 8.71415C6.3459 8.17266 6.03071 7.43694 6.01794 6.66542V4.3738C6.01794 3.59306 6.32809 2.84429 6.88016 2.29222C7.43221 1.74018 8.18092 1.43003 8.96162 1.43H8.96174Z" stroke="#6D6D6D"/>
</svg>
